<mxfile host="app.diagrams.net" modified="2023-04-26T12:27:09.301Z" agent="Mozilla/5.0 (Windows NT 10.0; Win64; x64) AppleWebKit/537.36 (KHTML, like Gecko) Chrome/112.0.0.0 Safari/537.36" etag="seaul0EYv60JAAxvFFIg" version="21.1.4" type="device">
  <diagram name="Page-1" id="df-2c7o3fvR80B4m2EIF">
    <mxGraphModel dx="1038" dy="739" grid="1" gridSize="10" guides="1" tooltips="1" connect="1" arrows="1" fold="1" page="1" pageScale="1" pageWidth="827" pageHeight="1169" math="0" shadow="0">
      <root>
        <mxCell id="0" />
        <mxCell id="1" parent="0" />
        <mxCell id="2fdZFBAq9TxM26RNQhWu-1" value="" style="rounded=1;whiteSpace=wrap;html=1;" parent="1" vertex="1">
          <mxGeometry x="350" y="120" width="120" height="60" as="geometry" />
        </mxCell>
        <mxCell id="2fdZFBAq9TxM26RNQhWu-2" value="&lt;font style=&quot;font-size: 18px;&quot;&gt;Accelerator&lt;/font&gt;" style="text;html=1;strokeColor=none;fillColor=none;align=center;verticalAlign=middle;whiteSpace=wrap;rounded=0;" parent="1" vertex="1">
          <mxGeometry x="360" y="130" width="100" height="40" as="geometry" />
        </mxCell>
        <mxCell id="2fdZFBAq9TxM26RNQhWu-5" value="" style="rounded=1;whiteSpace=wrap;html=1;" parent="1" vertex="1">
          <mxGeometry x="20" y="20" width="120" height="60" as="geometry" />
        </mxCell>
        <mxCell id="2fdZFBAq9TxM26RNQhWu-6" value="&lt;font style=&quot;font-size: 18px;&quot;&gt;Custom&lt;br&gt;instruction&lt;br&gt;&lt;/font&gt;" style="text;html=1;strokeColor=none;fillColor=none;align=center;verticalAlign=middle;whiteSpace=wrap;rounded=0;" parent="1" vertex="1">
          <mxGeometry x="30" y="30" width="100" height="40" as="geometry" />
        </mxCell>
        <mxCell id="2fdZFBAq9TxM26RNQhWu-7" value="" style="rounded=1;whiteSpace=wrap;html=1;" parent="1" vertex="1">
          <mxGeometry x="20" y="220" width="450" height="60" as="geometry" />
        </mxCell>
        <mxCell id="2fdZFBAq9TxM26RNQhWu-8" value="&lt;font style=&quot;font-size: 18px;&quot;&gt;Avalon bus&lt;/font&gt;" style="text;html=1;strokeColor=none;fillColor=none;align=center;verticalAlign=middle;whiteSpace=wrap;rounded=0;" parent="1" vertex="1">
          <mxGeometry x="110" y="230" width="100" height="40" as="geometry" />
        </mxCell>
        <mxCell id="2fdZFBAq9TxM26RNQhWu-13" value="" style="rounded=1;whiteSpace=wrap;html=1;" parent="1" vertex="1">
          <mxGeometry x="350" y="20" width="120" height="60" as="geometry" />
        </mxCell>
        <mxCell id="2fdZFBAq9TxM26RNQhWu-14" value="&lt;font style=&quot;font-size: 18px;&quot;&gt;GPIO0&lt;/font&gt;" style="text;html=1;strokeColor=none;fillColor=none;align=center;verticalAlign=middle;whiteSpace=wrap;rounded=0;" parent="1" vertex="1">
          <mxGeometry x="360" y="30" width="100" height="40" as="geometry" />
        </mxCell>
        <mxCell id="2fdZFBAq9TxM26RNQhWu-16" value="" style="endArrow=classic;html=1;rounded=0;exitX=0.5;exitY=0;exitDx=0;exitDy=0;entryX=0.5;entryY=1;entryDx=0;entryDy=0;" parent="1" source="2fdZFBAq9TxM26RNQhWu-1" target="2fdZFBAq9TxM26RNQhWu-13" edge="1">
          <mxGeometry width="50" height="50" relative="1" as="geometry">
            <mxPoint x="-160" y="280" as="sourcePoint" />
            <mxPoint x="-110" y="230" as="targetPoint" />
          </mxGeometry>
        </mxCell>
        <mxCell id="2fdZFBAq9TxM26RNQhWu-17" value="" style="rounded=1;whiteSpace=wrap;html=1;" parent="1" vertex="1">
          <mxGeometry x="20" y="120" width="120" height="60" as="geometry" />
        </mxCell>
        <mxCell id="2fdZFBAq9TxM26RNQhWu-18" value="&lt;font style=&quot;font-size: 18px;&quot;&gt;NIOS II Processor&lt;/font&gt;" style="text;html=1;strokeColor=none;fillColor=none;align=center;verticalAlign=middle;whiteSpace=wrap;rounded=0;" parent="1" vertex="1">
          <mxGeometry x="30" y="130" width="100" height="40" as="geometry" />
        </mxCell>
        <mxCell id="2fdZFBAq9TxM26RNQhWu-21" value="" style="endArrow=classic;startArrow=classic;html=1;rounded=0;entryX=0.5;entryY=1;entryDx=0;entryDy=0;fillColor=#0050ef;strokeColor=#001DBC;" parent="1" target="2fdZFBAq9TxM26RNQhWu-17" edge="1">
          <mxGeometry width="50" height="50" relative="1" as="geometry">
            <mxPoint x="80" y="220" as="sourcePoint" />
            <mxPoint x="-20" y="220" as="targetPoint" />
          </mxGeometry>
        </mxCell>
        <mxCell id="2fdZFBAq9TxM26RNQhWu-24" value="" style="endArrow=classic;startArrow=classic;html=1;rounded=0;entryX=0.5;entryY=1;entryDx=0;entryDy=0;fillColor=#e51400;strokeColor=#B20000;" parent="1" target="2fdZFBAq9TxM26RNQhWu-1" edge="1">
          <mxGeometry width="50" height="50" relative="1" as="geometry">
            <mxPoint x="410" y="220" as="sourcePoint" />
            <mxPoint x="220" y="210" as="targetPoint" />
          </mxGeometry>
        </mxCell>
        <mxCell id="2fdZFBAq9TxM26RNQhWu-30" value="" style="rounded=1;whiteSpace=wrap;html=1;" parent="1" vertex="1">
          <mxGeometry x="20" y="320" width="120" height="60" as="geometry" />
        </mxCell>
        <mxCell id="2fdZFBAq9TxM26RNQhWu-31" value="&lt;font style=&quot;font-size: 18px;&quot;&gt;Performance&lt;br&gt;counter&lt;br&gt;&lt;/font&gt;" style="text;html=1;strokeColor=none;fillColor=none;align=center;verticalAlign=middle;whiteSpace=wrap;rounded=0;" parent="1" vertex="1">
          <mxGeometry x="30" y="330" width="100" height="40" as="geometry" />
        </mxCell>
        <mxCell id="2fdZFBAq9TxM26RNQhWu-32" value="" style="endArrow=classic;startArrow=classic;html=1;rounded=0;exitX=0.5;exitY=0;exitDx=0;exitDy=0;fillColor=#fa6800;strokeColor=#C73500;" parent="1" source="2fdZFBAq9TxM26RNQhWu-30" edge="1">
          <mxGeometry width="50" height="50" relative="1" as="geometry">
            <mxPoint x="180" y="390" as="sourcePoint" />
            <mxPoint x="80" y="280" as="targetPoint" />
          </mxGeometry>
        </mxCell>
        <mxCell id="2fdZFBAq9TxM26RNQhWu-33" value="" style="rounded=1;whiteSpace=wrap;html=1;" parent="1" vertex="1">
          <mxGeometry x="170" y="320" width="120" height="60" as="geometry" />
        </mxCell>
        <mxCell id="2fdZFBAq9TxM26RNQhWu-35" value="" style="endArrow=classic;startArrow=classic;html=1;rounded=0;entryX=0.5;entryY=0;entryDx=0;entryDy=0;fillColor=#fa6800;strokeColor=#C73500;" parent="1" target="2fdZFBAq9TxM26RNQhWu-33" edge="1">
          <mxGeometry width="50" height="50" relative="1" as="geometry">
            <mxPoint x="230" y="280" as="sourcePoint" />
            <mxPoint x="290" y="400" as="targetPoint" />
            <Array as="points">
              <mxPoint x="230" y="300" />
            </Array>
          </mxGeometry>
        </mxCell>
        <mxCell id="2fdZFBAq9TxM26RNQhWu-36" value="" style="rounded=1;whiteSpace=wrap;html=1;" parent="1" vertex="1">
          <mxGeometry x="170" y="120" width="120" height="60" as="geometry" />
        </mxCell>
        <mxCell id="2fdZFBAq9TxM26RNQhWu-38" value="" style="endArrow=classic;startArrow=classic;html=1;rounded=0;fillColor=#fa6800;strokeColor=#C73500;" parent="1" edge="1">
          <mxGeometry width="50" height="50" relative="1" as="geometry">
            <mxPoint x="230" y="220" as="sourcePoint" />
            <mxPoint x="230" y="180" as="targetPoint" />
          </mxGeometry>
        </mxCell>
        <mxCell id="2fdZFBAq9TxM26RNQhWu-41" value="&lt;font style=&quot;font-size: 18px;&quot;&gt;JTAG&lt;/font&gt;" style="text;html=1;strokeColor=none;fillColor=none;align=center;verticalAlign=middle;whiteSpace=wrap;rounded=0;" parent="1" vertex="1">
          <mxGeometry x="180" y="330" width="100" height="40" as="geometry" />
        </mxCell>
        <mxCell id="2fdZFBAq9TxM26RNQhWu-49" value="" style="endArrow=classic;startArrow=classic;html=1;rounded=0;fillColor=#0050ef;strokeColor=#001DBC;" parent="1" edge="1">
          <mxGeometry width="50" height="50" relative="1" as="geometry">
            <mxPoint x="400" y="320" as="sourcePoint" />
            <mxPoint x="350" y="320" as="targetPoint" />
          </mxGeometry>
        </mxCell>
        <mxCell id="2fdZFBAq9TxM26RNQhWu-50" value="" style="endArrow=classic;startArrow=classic;html=1;rounded=0;fillColor=#fa6800;strokeColor=#C73500;" parent="1" edge="1">
          <mxGeometry width="50" height="50" relative="1" as="geometry">
            <mxPoint x="350" y="350" as="sourcePoint" />
            <mxPoint x="400" y="350" as="targetPoint" />
          </mxGeometry>
        </mxCell>
        <mxCell id="2fdZFBAq9TxM26RNQhWu-51" value="&lt;font style=&quot;font-size: 18px;&quot;&gt;Master&lt;br&gt;&lt;/font&gt;" style="text;html=1;strokeColor=none;fillColor=none;align=center;verticalAlign=middle;whiteSpace=wrap;rounded=0;" parent="1" vertex="1">
          <mxGeometry x="420" y="310" width="50" height="20" as="geometry" />
        </mxCell>
        <mxCell id="7jhj6rdcTujtURosXQOu-1" value="&lt;font style=&quot;font-size: 18px;&quot;&gt;Onchip&lt;br&gt;memory&lt;br&gt;&lt;/font&gt;" style="text;html=1;strokeColor=none;fillColor=none;align=center;verticalAlign=middle;whiteSpace=wrap;rounded=0;" vertex="1" parent="1">
          <mxGeometry x="180" y="130" width="100" height="40" as="geometry" />
        </mxCell>
        <mxCell id="7jhj6rdcTujtURosXQOu-5" value="" style="endArrow=classic;startArrow=classic;html=1;rounded=0;entryX=0.5;entryY=1;entryDx=0;entryDy=0;exitX=0.5;exitY=0;exitDx=0;exitDy=0;" edge="1" parent="1" source="2fdZFBAq9TxM26RNQhWu-17" target="2fdZFBAq9TxM26RNQhWu-5">
          <mxGeometry width="50" height="50" relative="1" as="geometry">
            <mxPoint x="170" y="330" as="sourcePoint" />
            <mxPoint x="220" y="280" as="targetPoint" />
          </mxGeometry>
        </mxCell>
        <mxCell id="7jhj6rdcTujtURosXQOu-6" value="" style="endArrow=classic;html=1;rounded=0;entryX=0;entryY=0.5;entryDx=0;entryDy=0;fillColor=#0050ef;strokeColor=#001DBC;" edge="1" parent="1" target="2fdZFBAq9TxM26RNQhWu-1">
          <mxGeometry width="50" height="50" relative="1" as="geometry">
            <mxPoint x="320" y="150" as="sourcePoint" />
            <mxPoint x="220" y="280" as="targetPoint" />
          </mxGeometry>
        </mxCell>
        <mxCell id="7jhj6rdcTujtURosXQOu-7" value="" style="endArrow=classic;html=1;rounded=0;entryX=1;entryY=0.5;entryDx=0;entryDy=0;fillColor=#e51400;strokeColor=#B20000;" edge="1" parent="1" target="2fdZFBAq9TxM26RNQhWu-36">
          <mxGeometry width="50" height="50" relative="1" as="geometry">
            <mxPoint x="320" y="150" as="sourcePoint" />
            <mxPoint x="220" y="280" as="targetPoint" />
          </mxGeometry>
        </mxCell>
        <mxCell id="7jhj6rdcTujtURosXQOu-9" value="&lt;font style=&quot;font-size: 18px;&quot;&gt;Slave&lt;br&gt;&lt;/font&gt;" style="text;html=1;strokeColor=none;fillColor=none;align=center;verticalAlign=middle;whiteSpace=wrap;rounded=0;" vertex="1" parent="1">
          <mxGeometry x="420" y="340" width="50" height="20" as="geometry" />
        </mxCell>
      </root>
    </mxGraphModel>
  </diagram>
</mxfile>
